<svg width="28" height="28" viewBox="0 0 28 28" fill="none" xmlns="http://www.w3.org/2000/svg">
<path d="M7.3656 12.3853C7.80726 12.3853 8.16577 12.0267 8.16577 11.5851C8.16577 11.1434 7.80726 10.7849 7.3656 10.7849C6.92394 10.7849 6.56543 11.1434 6.56543 11.5851C6.56543 12.0267 6.92394 12.3853 7.3656 12.3853Z" fill="white"/>
<path fill-rule="evenodd" clip-rule="evenodd" d="M13.4763 1.20312C6.61577 1.54726 0.164062 6.49427 0.164062 13.1854C0.164062 15.9816 1.27055 18.691 3.28474 20.8377C3.68326 22.4805 3.19941 24.2219 1.99883 25.4224C1.77003 25.6512 1.70158 25.9954 1.82536 26.2945C1.94914 26.5933 2.24076 26.7883 2.56458 26.7883C4.84664 26.7883 7.04586 25.8935 8.67997 24.3166C10.2719 24.8592 12.3489 25.188 14.2471 25.188C21.4499 25.188 27.3618 20.2225 27.8204 13.9678C27.8497 13.6492 27.8309 12.7667 27.8179 12.3652C27.5841 9.33926 26.0747 6.49521 23.4941 4.3835C23.146 4.08592 21.7102 3.19261 21.0358 2.78315C19.2194 1.85858 17.1799 1.3194 15.0807 1.20625C14.3393 1.20875 13.7022 1.20521 13.4763 1.20312ZM8.76499 22.6434C10.2065 23.2169 12.3586 23.5877 14.2471 23.5877C20.8654 23.5877 26.2497 18.9213 26.2497 13.1854C26.2497 7.2263 20.6366 2.78315 14.2471 2.78315C7.48064 2.78315 1.76441 7.54668 1.76441 13.1854C1.76441 15.6306 2.76431 18.0071 4.57971 19.8768C4.67191 19.9716 4.73911 20.0878 4.77537 20.215C5.23422 21.8291 5.04168 23.5326 4.28745 24.9776C5.65619 24.6391 6.9124 23.9027 7.87854 22.8466C8.10328 22.6012 8.45617 22.5202 8.76499 22.6434Z" fill="white"/>
<path d="M20.6485 10.7849H10.5663C10.1243 10.7849 9.76611 11.1431 9.76611 11.5851C9.76611 12.0271 10.1243 12.3853 10.5663 12.3853H20.6485C21.0904 12.3853 21.4486 12.0271 21.4486 11.5851C21.4486 11.1431 21.0904 10.7849 20.6485 10.7849Z" fill="white"/>
<path d="M20.6485 15.5859H7.3656C6.92363 15.5859 6.56543 15.9441 6.56543 16.3861C6.56543 16.8281 6.92363 17.1863 7.3656 17.1863H20.6485C21.0904 17.1863 21.4486 16.8281 21.4486 16.3861C21.4486 15.9441 21.0904 15.5859 20.6485 15.5859Z" fill="white"/>
</svg>
