<svg width="16" height="16" viewBox="0 0 16 16" fill="none" xmlns="http://www.w3.org/2000/svg">
<path fill-rule="evenodd" clip-rule="evenodd" d="M15.8698 15.8698C15.6963 16.0434 15.4149 16.0434 15.2413 15.8698L0.130175 0.758711C-0.0433908 0.585145 -0.0433908 0.303739 0.130175 0.130172C0.303742 -0.0433936 0.585147 -0.0433935 0.758714 0.130172L15.8698 15.2413C16.0434 15.4149 16.0434 15.6963 15.8698 15.8698Z" fill="#787878"/>
<path fill-rule="evenodd" clip-rule="evenodd" d="M0.130174 15.8698C-0.0433922 15.6963 -0.0433921 15.4149 0.130174 15.2413L15.2413 0.130175C15.4149 -0.0433922 15.6963 -0.0433922 15.8698 0.130175C16.0434 0.303741 16.0434 0.585147 15.8698 0.758714L0.758714 15.8698C0.585147 16.0434 0.30374 16.0434 0.130174 15.8698Z" fill="#787878"/>
</svg>
