<svg width="42" height="15" viewBox="0 0 42 15" fill="none" xmlns="http://www.w3.org/2000/svg">
<path d="M40.5913 14.6288C40.9386 14.8546 41.4031 14.756 41.6288 14.4087C41.8546 14.0614 41.756 13.5969 41.4087 13.3712L40.5913 14.6288ZM21 0.999998L21.4087 0.371166C21.1602 0.209609 20.8398 0.209609 20.5913 0.371166L21 0.999998ZM0.591259 13.3712C0.243964 13.5969 0.145426 14.0614 0.371167 14.4087C0.596909 14.756 1.06145 14.8546 1.40874 14.6288L0.591259 13.3712ZM41.4087 13.3712L21.4087 0.371166L20.5913 1.62883L40.5913 14.6288L41.4087 13.3712ZM1.40874 14.6288L21.4087 1.62883L20.5913 0.371166L0.591259 13.3712L1.40874 14.6288Z" fill="black"/>
</svg>
