<svg width="10" height="18" viewBox="0 0 10 18" fill="none" xmlns="http://www.w3.org/2000/svg">
<path d="M9.35355 1.35355C9.54882 1.15829 9.54882 0.841709 9.35355 0.646447C9.15829 0.451184 8.84171 0.451184 8.64645 0.646447L9.35355 1.35355ZM0.999999 9L0.646445 8.64645C0.552677 8.74021 0.499999 8.86739 0.499999 9C0.499999 9.13261 0.552677 9.25979 0.646445 9.35355L0.999999 9ZM8.64645 17.3536C8.84171 17.5488 9.15829 17.5488 9.35355 17.3536C9.54881 17.1583 9.54881 16.8417 9.35355 16.6464L8.64645 17.3536ZM8.64645 0.646447L0.646445 8.64645L1.35355 9.35355L9.35355 1.35355L8.64645 0.646447ZM9.35355 16.6464L1.35355 8.64645L0.646445 9.35355L8.64645 17.3536L9.35355 16.6464Z" fill="#ADADAD"/>
</svg>
