<svg width="549" height="376" viewBox="0 0 549 376" fill="none" xmlns="http://www.w3.org/2000/svg">
<path d="M409.689 375.379C390.428 375.375 352.674 372.473 324.901 367.636C301.924 364.178 288.192 361.329 271.674 361.329C265.404 361.329 258.73 361.74 251 362.684C242.144 363.765 229.572 364.449 216.891 364.449C203.74 364.449 190.473 363.713 181.126 361.923C159.721 366.458 125.442 369.251 108.928 369.251C107.272 369.251 105.791 369.22 104.522 369.163C75.445 367.85 -25.7287 364.348 6.13717 346.838C20.6231 338.878 51.5632 336.708 81.0132 336.708C116.347 336.708 149.533 339.834 149.533 339.834C164.037 341.788 174.912 343.706 182.767 345.566C192.947 343.009 207.047 342.12 221.092 342.12C221.959 342.12 223.691 342.13 223.691 342.13L233.917 342.349C233.917 342.349 260.067 343.959 267.132 344.955C270.697 345.457 274.934 345.664 279.502 345.664C300.939 345.664 329.602 345.102 329.602 345.102C337.276 343.735 346.243 342.348 356.64 340.948C356.64 340.948 407 336.708 446.158 336.864C485.315 337.02 514.5 336.5 543.981 350.098C573.462 363.697 453.433 373.55 415.445 375.266C413.786 375.34 411.856 375.379 409.689 375.379Z" fill="#66102A" fill-opacity="0.38"/>
<path d="M146.586 8.87829C121.869 12.1846 99.4932 23.5968 82.5851 41.4908C67.5729 57.3592 57.8345 77.2001 54.4823 98.7095C53.3898 105.796 53.263 108.647 53.5939 118.644C53.8718 127.04 54.0095 128.694 54.6907 132.57C57.9983 151.481 65.0134 168.805 76.791 187.187C93.0307 212.582 118.587 238.802 149.997 262.285C177.777 283.04 210.595 301.445 225.912 304.809C233.459 306.467 245.47 306.014 253.138 303.797C266.995 299.8 296.634 280.655 321.972 259.358C353.283 233.08 377.78 204.733 393.36 176.792C396.491 171.159 401.94 159.533 403.92 154.187C408.159 142.795 410.8 131.538 411.989 119.832C412.508 114.645 411.982 98.7375 411.119 93.5409C406.991 69.072 395.707 48.0469 377.911 31.6056C360.516 15.5657 339.274 6.09484 315.057 3.63408C309.731 3.09152 293.851 3.6171 288.821 4.50242C275.93 6.78138 265.763 10.3249 254.793 16.3279C247.841 20.1244 240.649 25.0347 235.354 29.6058L234.601 30.2389L237.148 32.864C247.54 43.6064 256.389 56.2244 262.331 68.6899C264.679 73.6439 266.495 78.3667 268.442 84.578C268.535 84.8791 266.832 81.8943 264.655 77.9299C255.652 61.5017 247.01 50.1485 234.939 38.7982C227.434 31.7202 221.396 27.1925 213.136 22.3789C208.879 19.8934 199.446 15.561 195.561 14.2796C194.024 13.7775 192.402 13.223 191.925 13.0176C188.058 11.4591 177.814 9.33765 169.934 8.46495C166.271 8.0609 150.604 8.33061 146.586 8.87829Z" fill="#84002B"/>
<path d="M302.06 285.907C307.304 281.277 312.001 276.998 315.769 273.354C312.001 276.997 307.304 281.278 302.06 285.907ZM348.861 238.3C364.507 219.889 378.464 200.153 389.51 178.812C378.464 200.153 364.507 219.89 348.861 238.3ZM389.563 178.706C389.572 178.693 389.58 178.68 389.585 178.667C389.58 178.68 389.572 178.693 389.563 178.706ZM389.62 178.6C389.624 178.587 389.637 178.566 389.642 178.554C389.637 178.569 389.629 178.584 389.62 178.6ZM389.677 178.492C389.681 178.476 389.69 178.461 389.699 178.445C389.69 178.461 389.681 178.477 389.677 178.492ZM389.729 178.385C389.738 178.368 389.747 178.353 389.755 178.337C389.747 178.353 389.738 178.369 389.729 178.385ZM389.786 178.273C389.795 178.256 389.808 178.233 389.817 178.217C389.808 178.234 389.795 178.255 389.786 178.273ZM389.861 178.13C389.869 178.114 389.878 178.095 389.887 178.079C389.878 178.096 389.869 178.113 389.861 178.13ZM389.913 178.023C389.926 178.003 389.931 177.989 389.944 177.969C389.931 177.987 389.922 178.005 389.913 178.023ZM389.966 177.918C389.979 177.898 389.987 177.881 389.996 177.861C389.987 177.88 389.979 177.899 389.966 177.918ZM390.022 177.813C390.031 177.792 390.04 177.774 390.049 177.754C390.04 177.774 390.031 177.793 390.022 177.813ZM390.075 177.706C390.11 177.633 390.149 177.56 390.184 177.487C390.145 177.561 390.11 177.633 390.075 177.706ZM390.206 177.445C390.215 177.425 390.228 177.402 390.237 177.382C390.224 177.404 390.215 177.424 390.206 177.445ZM390.259 177.339C390.268 177.319 390.276 177.298 390.29 177.278C390.276 177.299 390.268 177.319 390.259 177.339ZM390.311 177.234C390.32 177.213 390.333 177.189 390.342 177.169C390.333 177.191 390.32 177.212 390.311 177.234ZM390.36 177.136C390.403 177.05 390.443 176.97 390.482 176.885C390.443 176.969 390.399 177.053 390.36 177.136ZM390.491 176.865C390.504 176.841 390.517 176.817 390.53 176.793C390.517 176.817 390.504 176.841 390.491 176.865ZM390.543 176.76C390.557 176.735 390.565 176.714 390.578 176.689C390.565 176.713 390.557 176.736 390.543 176.76ZM390.596 176.656C390.609 176.631 390.618 176.607 390.631 176.583C390.618 176.607 390.609 176.631 390.596 176.656ZM390.644 176.556C390.701 176.438 390.762 176.317 390.819 176.199C390.758 176.318 390.701 176.436 390.644 176.556ZM390.828 176.178C390.841 176.15 390.854 176.128 390.867 176.099C390.854 176.126 390.841 176.152 390.828 176.178ZM390.876 176.074C390.889 176.05 390.907 176.019 390.915 175.994C390.902 176.021 390.889 176.048 390.876 176.074ZM390.924 175.975C390.942 175.946 390.955 175.919 390.968 175.89C390.955 175.918 390.937 175.947 390.924 175.975ZM390.968 175.889C391.012 175.795 391.056 175.701 391.104 175.607C391.056 175.701 391.012 175.795 390.968 175.889ZM391.108 175.592C391.121 175.564 391.134 175.539 391.147 175.51C391.134 175.537 391.121 175.566 391.108 175.592ZM391.161 175.488C391.169 175.463 391.187 175.431 391.196 175.407C391.182 175.435 391.174 175.46 391.161 175.488ZM391.209 175.387C391.222 175.358 391.231 175.331 391.248 175.303C391.235 175.331 391.222 175.358 391.209 175.387ZM391.253 175.294C391.296 175.199 391.34 175.103 391.384 175.009C391.34 175.103 391.296 175.2 391.253 175.294ZM391.388 175.005C391.401 174.976 391.41 174.951 391.423 174.922C391.41 174.95 391.401 174.977 391.388 175.005ZM391.436 174.898C391.45 174.873 391.463 174.843 391.476 174.818C391.463 174.844 391.45 174.872 391.436 174.898ZM391.485 174.796C391.498 174.767 391.511 174.742 391.524 174.713C391.511 174.741 391.498 174.768 391.485 174.796ZM391.528 174.701C391.572 174.606 391.616 174.513 391.66 174.418C391.616 174.512 391.572 174.606 391.528 174.701ZM391.66 174.414C391.673 174.385 391.686 174.362 391.699 174.333C391.686 174.36 391.673 174.387 391.66 174.414ZM391.712 174.307C391.721 174.282 391.734 174.255 391.747 174.23C391.734 174.256 391.721 174.281 391.712 174.307ZM391.76 174.202C391.769 174.177 391.782 174.151 391.795 174.126C391.782 174.152 391.769 174.176 391.76 174.202ZM391.808 174.097C391.848 174.011 391.892 173.916 391.931 173.829C391.887 173.919 391.848 174.008 391.808 174.097ZM391.931 173.82C391.944 173.796 391.957 173.769 391.966 173.745C391.957 173.77 391.944 173.795 391.931 173.82ZM391.984 173.713C391.992 173.688 392.005 173.665 392.014 173.641C392.005 173.665 391.992 173.689 391.984 173.713ZM392.032 173.607C392.04 173.582 392.049 173.56 392.062 173.536C392.054 173.559 392.04 173.583 392.032 173.607ZM392.08 173.501C392.089 173.476 392.097 173.453 392.111 173.428C392.102 173.452 392.089 173.477 392.08 173.501ZM392.124 173.403C392.159 173.321 392.198 173.238 392.233 173.155C392.194 173.238 392.159 173.32 392.124 173.403ZM392.251 173.118C392.259 173.098 392.268 173.073 392.277 173.053C392.268 173.075 392.259 173.096 392.251 173.118ZM392.299 173.009C392.308 172.989 392.316 172.968 392.325 172.947C392.316 172.968 392.308 172.988 392.299 173.009ZM392.347 172.899C392.356 172.878 392.364 172.859 392.373 172.838C392.364 172.858 392.356 172.879 392.347 172.899ZM392.395 172.792C392.413 172.755 392.43 172.713 392.448 172.676C392.43 172.714 392.413 172.753 392.395 172.792ZM392.465 172.63C392.474 172.614 392.483 172.592 392.491 172.576C392.483 172.594 392.474 172.612 392.465 172.63ZM392.513 172.52C392.522 172.503 392.531 172.482 392.54 172.465C392.531 172.483 392.522 172.502 392.513 172.52ZM392.561 172.411C392.57 172.394 392.579 172.373 392.588 172.356C392.579 172.374 392.57 172.392 392.561 172.411ZM392.61 172.301C392.618 172.284 392.627 172.262 392.636 172.245C392.627 172.264 392.618 172.282 392.61 172.301ZM392.658 172.187C392.666 172.17 392.675 172.155 392.68 172.138C392.675 172.154 392.666 172.17 392.658 172.187ZM392.728 172.032C392.732 172.02 392.737 172.01 392.741 171.997C392.737 172.008 392.732 172.022 392.728 172.032ZM392.776 171.922C392.78 171.905 392.785 171.894 392.793 171.878C392.789 171.892 392.78 171.907 392.776 171.922ZM392.82 171.812C392.828 171.795 392.833 171.782 392.842 171.765C392.833 171.781 392.828 171.796 392.82 171.812ZM392.872 171.698C392.877 171.686 392.885 171.667 392.89 171.654C392.881 171.669 392.877 171.683 392.872 171.698ZM392.92 171.582C392.925 171.57 392.929 171.557 392.938 171.544C392.929 171.557 392.925 171.57 392.92 171.582ZM393.03 171.323C393.034 171.311 393.039 171.302 393.043 171.29C393.039 171.301 393.034 171.312 393.03 171.323ZM393.078 171.21C393.082 171.198 393.087 171.188 393.091 171.175C393.087 171.186 393.082 171.199 393.078 171.21ZM393.126 171.095C393.13 171.083 393.135 171.075 393.139 171.062C393.135 171.074 393.13 171.084 393.126 171.095ZM393.179 170.97C393.183 170.962 393.183 170.961 393.187 170.953C393.183 170.959 393.183 170.964 393.179 170.97ZM393.332 170.605C393.336 170.597 393.336 170.598 393.341 170.59C393.336 170.596 393.336 170.599 393.332 170.605ZM393.38 170.488C393.384 170.483 393.384 170.478 393.389 170.473C393.384 170.478 393.384 170.483 393.38 170.488ZM393.433 170.366C393.433 170.362 393.433 170.362 393.437 170.358C393.433 170.362 393.433 170.363 393.433 170.366Z" fill="#E5E5E5"/>
<path d="M292.91 119.926C276.754 122.604 262.301 130.554 251.57 142.646C242.042 153.37 236.057 166.594 234.298 180.781C233.726 185.455 233.702 187.329 234.124 193.884C234.479 199.389 234.603 200.472 235.13 203.002C237.689 215.347 242.649 226.574 250.757 238.398C261.938 254.734 279.251 271.42 300.35 286.189C319.01 299.243 340.929 310.65 351.052 312.543C356.04 313.477 363.915 312.933 368.902 311.32C377.916 308.412 396.978 295.237 413.172 280.738C433.185 262.847 448.682 243.738 458.336 225.078C460.275 221.316 463.613 213.573 464.803 210.024C467.352 202.459 468.854 195.016 469.394 187.308C469.629 183.892 468.957 173.462 468.283 170.069C465.072 154.092 457.233 140.523 445.215 130.097C433.468 119.925 419.33 114.145 403.384 113.026C399.877 112.78 389.465 113.451 386.181 114.135C377.767 115.895 371.166 118.43 364.088 122.595C359.603 125.23 354.983 128.601 351.601 131.71L351.12 132.141L352.846 133.812C359.887 140.65 365.955 148.75 370.111 156.81C371.754 160.014 373.042 163.077 374.448 167.114C374.515 167.31 373.337 165.385 371.826 162.828C365.579 152.229 359.674 144.955 351.518 137.752C346.446 133.26 342.39 130.412 336.869 127.422C334.024 125.878 327.744 123.228 325.167 122.467C324.148 122.169 323.072 121.838 322.755 121.713C320.185 120.769 313.417 119.587 308.226 119.176C305.814 118.986 295.536 119.485 292.91 119.926Z" fill="#C0153F"/>
<path d="M184.1 195.41L197.425 267.422L196.633 345.875L183.782 346.861L172.474 281.588L138.329 195.352L184.1 195.41Z" fill="#59595B"/>
<path d="M164.704 184.164L146.366 264.011L121.549 346.398L109.562 345.225L117.183 260.889L115.973 182.855L164.704 184.164Z" fill="#59595B"/>
<path d="M195.025 345.871L203.842 349.43L203.418 354.455L185.149 354.871L184.439 346.862L195.025 345.871Z" fill="#3A3029"/>
<path d="M120.257 344.546L129.101 351.446L126.656 357.12L108.338 352.272L109.7 344.996L120.257 344.546Z" fill="#3A3029"/>
<path d="M189.845 77.8174C187.255 82.1875 185.477 83.2875 181.073 86.5037C181.893 82.2045 182.838 77.7968 183.658 73.4977C185.103 74.2397 186.548 74.9812 187.994 75.7224C188.872 76.1732 189.88 76.8312 189.845 77.8174Z" fill="#3A3029"/>
<path d="M181.24 86.9422C182.497 82.6619 186.123 76.8512 184.003 72.5249C181.655 67.7351 175.853 65.6856 170.528 65.3756C166.286 65.1292 161.495 65.9788 159.022 69.4331C156.635 72.7688 157.221 77.306 157.91 81.3504C158.234 83.2489 158.062 85.9384 159.17 87.5419C160.703 89.7608 164.025 90.6897 164.025 90.6897C164.9 90.9344 165.354 91.8992 164.985 92.7301L163.979 94.9954C163.979 94.9954 163.025 96.6011 165.554 97.6885C167.611 97.9524 169.668 98.2164 171.725 98.4804C172.682 96.6571 172.522 94.0678 174.29 93.0133C175.293 92.4153 176.574 92.576 177.674 92.1842C179.745 91.4457 180.621 89.0521 181.24 86.9422Z" fill="#EACDB0"/>
<path d="M205.39 220.821C205.028 217.305 204.959 213.886 203.603 210.747C202.087 207.242 201.376 203.049 200.552 199.254C198.836 191.342 197.384 183.126 196.753 174.955C195.549 163.775 193.794 152.759 192.712 141.569C191.961 133.812 191.442 125.971 189.786 118.414C188.488 112.497 185.803 103.683 181.039 100.175C179.427 98.9882 177.473 98.4918 175.563 98.016C169.995 96.6292 164.412 94.8944 158.763 93.895C157.159 93.6113 155.644 93.6415 154.213 93.9204C149.072 94.9228 145.02 99.1344 141.81 103.493C132.293 116.411 127.058 127.449 121.335 142.858C118.348 150.905 115.446 158.986 112.784 167.153C109.814 176.265 107.136 185.485 104.978 194.832C104.844 195.413 104.543 196.572 104.16 198.087C104.158 198.094 96.3201 223.814 104.199 226.002C112.078 228.191 133.935 205.241 176.563 219.811C180.612 221.354 184.386 223.369 188.8 223.966C194.125 224.686 199.671 223.999 204.812 221.879C205 221.801 205.201 221.71 205.313 221.524C205.435 221.319 205.415 221.058 205.39 220.821Z" fill="#FCE0A7"/>
<path d="M376.111 60.1226C376.245 60.046 376.374 59.9628 376.511 59.8906L376.127 60.0757C375.908 59.6888 375.668 59.3136 375.414 58.9485V58.9481C373.437 56.1071 370.457 53.9682 367.119 53.0442C363.93 55.7157 362.15 59.9816 362.493 64.1275C362.637 65.861 363.154 67.552 363.964 69.0894L363.963 69.0925L363.995 69.1476C364.067 69.2838 364.143 69.4181 364.221 69.5521C365.414 71.7452 370.306 81.5766 368.889 93.0185C367.279 106.019 371.25 109.219 371.25 109.219C371.25 109.219 383.217 109.835 389.783 106.342C396.191 102.935 385.309 75.8185 376.111 60.1226Z" fill="#9E6652"/>
<path d="M377.243 221.35L395.68 353.605H404.063L405.569 268.83L420.825 209.327L377.243 221.35Z" fill="#59595B"/>
<path d="M403.999 351.227V355.978L394.938 360.728L390.403 355.978L394.938 351.227H403.999Z" fill="#3A3029"/>
<path d="M399.278 232.465L463.128 349.744L470.972 346.791L442.514 266.92L435.825 205.859L399.278 232.465Z" fill="#59595B"/>
<path d="M470.208 344.545L471.88 348.991L465.073 356.629L459.159 353.78L461.725 347.738L470.208 344.545Z" fill="#3A3029"/>
<path d="M381.951 90.2393C382.092 90.1495 382.238 90.065 382.391 89.9871C383.624 89.3585 385.025 89.264 386.382 89.176C387.826 89.0827 389.196 88.771 390.619 88.5999C393.753 88.2243 396.892 87.815 399.961 87.0647C425.534 97.1404 422.767 138.009 433.956 163.687C445.841 190.959 458.317 217.973 471.371 244.702C472.11 246.216 446.204 254.744 443.876 255.355C420.141 261.586 389.862 265.857 365.104 264.276C370.034 222.226 365.353 179.493 366.708 137.168C367.177 129.756 368.197 122.359 370.02 115.155C371.288 110.139 372.947 105.204 375.154 100.52C376.098 98.5158 377.096 96.464 378.372 94.6496C379.473 93.0846 380.306 91.2877 381.951 90.2393Z" fill="#B7C7C7"/>
<path d="M366.848 66.3757C367.154 50.9149 386.309 50.3393 393.729 61.5631C397.949 67.9459 396.4 78.2523 391.103 84.0853C391.199 85.4335 391.641 89.122 390.779 90.18C389.842 91.3261 386.231 90.9956 384.821 90.9106C384.431 90.8874 384.02 90.8459 383.7 90.6187C383.302 90.335 383.088 89.4293 382.912 88.4159C381.905 88.5162 380.853 88.4947 379.758 88.3297C375.163 87.6363 371.329 84.1391 369.283 79.9669C367.236 75.7948 366.757 71.0215 366.848 66.3757Z" fill="#EACDB0"/>
<path d="M469.252 159.494L476.694 167.811L469.007 176.607L467.064 167.811L463.75 164.09L469.252 159.494Z" fill="#EACDB0"/>
<path d="M292.401 159.035L283.208 160.349L278.393 168.228L282.77 172.606L294.78 165.82L292.401 159.035Z" fill="#DBC0A5"/>
<path d="M274.228 158.203L283.636 158.168L292.829 169.111L286.701 172.613L278.383 167.798L273.292 164.054L274.228 158.203Z" fill="#EACDB0"/>
<path d="M198.764 55.0633C198.323 53.286 192.818 50.3523 191.097 49.7271C189.376 49.1016 187.523 48.9274 185.774 48.3846C183.908 47.8054 182.131 46.8021 180.178 46.7238C176.464 46.5745 173.343 49.767 169.636 50.0428C164.505 50.4245 160.051 47.7122 156.491 53.4134C155.836 54.4605 155.574 55.7077 154.984 56.7924C154.221 58.1936 152.96 59.2429 151.939 60.4691C147.452 65.8604 148.013 74.6639 152.455 79.9292C153.793 81.5142 154.79 83.5104 156.145 85.1454C157.682 87.0005 160.226 89.0081 161.567 89.603C164.517 90.9123 171.017 72.4712 171.017 72.4712C171.017 72.4712 172.927 72.6297 174.556 72.5907C175.535 72.9269 176.497 73.3187 177.437 73.8046C180.996 75.6432 184.908 77.0637 188.874 77.6984C189.381 77.7794 189.852 77.5097 190.365 77.5426C193.345 77.7321 193.821 78.4194 194.807 77.9676C198.175 76.4254 196.215 70.6997 196.919 67.0659C197.483 64.1558 198.047 61.2452 198.61 58.335C198.82 57.2538 199.028 56.1314 198.764 55.0633Z" fill="#3A3029"/>
<path d="M381.28 91.1962L366.835 97.7625L340.132 139.786L291.756 157.668L295.482 167.802L350.638 155.545L375.59 127.529L381.28 91.1962Z" fill="#B7C7C7"/>
<path d="M54.1381 116.861L53.4714 113.655L53.6994 104.56L45.9522 112.22L43.7634 120.538L50.4172 124.302L54.1381 116.861Z" fill="#EACDB0"/>
<path d="M178.857 99.0119C179.783 99.3262 183.408 101.255 183.408 101.255L217.115 143.278L274.796 156.733L272.709 167.792L210.987 162.539L175.967 137.15L168.525 105.194C168.525 105.194 177.931 98.6976 178.857 99.0119Z" fill="#FCE0A7"/>
<path d="M156.219 93.6962C156.219 93.6962 154.613 93.7768 153.117 93.944C151.621 94.1108 139.185 95.9927 139.185 95.9927L95.4101 122.258L54.2692 115.597L49.8843 125.322L91.9081 142.832L102.852 143.269L133.932 126.197L156.219 93.6962Z" fill="#FCE0A7"/>
<path d="M408.953 86.8614L436.431 123.259L469.551 159.592L462.188 165.452L425.828 135.44L408.454 117.896L394.993 94.7251L408.953 86.8614Z" fill="#B7C7C7"/>
<path d="M402.86 113.598C399.288 114.119 387.823 115.721 380.381 113.532C380.884 113.678 382.216 110.26 382.396 109.858C383.257 107.916 384.05 105.94 384.759 103.937C387.254 96.8926 389.233 89.4802 387.74 81.9995C386.983 78.2029 385.551 74.5425 383.573 71.2165C380.971 66.8394 376.807 64.8884 372.572 62.4225C370.709 61.3378 368.982 59.8065 368.193 57.7999C367.321 55.581 367.83 52.996 369.044 50.9434C370.912 47.7851 373.451 45.9417 376.964 45.261C384.059 43.8869 392.122 45.4567 397.826 50.0036C404.72 55.496 407.982 64.7023 409.68 73.097C410.135 75.3497 410.459 77.64 411.195 79.8178C411.983 82.1479 413.213 84.2951 414.355 86.4742C416.036 89.6921 417.546 93.0675 418.063 96.6619C418.579 100.256 418.015 104.127 415.861 107.053C412.858 111.134 407.662 112.898 402.86 113.598Z" fill="#9E6652"/>
</svg>
