<svg width="28" height="28" viewBox="0 0 28 28" fill="none" xmlns="http://www.w3.org/2000/svg">
<g clip-path="url(#clip0)">
<path d="M1.42963 24.0702C1.3982 24.0388 1.36784 24.0057 1.33868 23.9711C0.920319 23.4742 0.865247 22.793 1.19835 22.2354L5.97574 14.24C6.06417 14.092 6.0642 13.9081 5.9757 13.7601L1.19835 5.76468C0.865211 5.20709 0.920283 4.52581 1.33868 4.02902C1.757 3.53223 2.41894 3.36197 3.02507 3.59533L26.415 12.6001C26.9989 12.8249 27.3762 13.3743 27.3762 14C27.3762 14.6257 26.9989 15.1752 26.415 15.4L3.02503 24.4047C2.4612 24.6218 1.84904 24.4896 1.42963 24.0702ZM2.08452 22.7649C1.92583 23.0305 2.07788 23.2463 2.12828 23.3061C2.17854 23.366 2.36554 23.5525 2.65423 23.4414L26.0442 14.4366C26.3223 14.3296 26.3439 14.0753 26.3439 14C26.3439 13.9247 26.3222 13.6704 26.0442 13.5634L2.65412 4.55869C2.3654 4.44756 2.17861 4.63413 2.12821 4.69395C2.07781 4.75377 1.92576 4.9696 2.08445 5.23523L6.8618 13.2306C7.14538 13.7052 7.14538 14.2949 6.8618 14.7695L2.08452 22.7649Z" fill="white"/>
<path fill-rule="evenodd" clip-rule="evenodd" d="M27.2395 14C27.2395 13.4309 26.897 12.9321 26.3659 12.7277L2.97595 3.72292C2.42424 3.51051 1.82402 3.6649 1.44326 4.11708C1.06244 4.56926 1.01249 5.18702 1.31572 5.69456L6.09304 13.6899C6.20737 13.8811 6.20732 14.1189 6.0931 14.3101L1.31571 22.3055C1.01252 22.813 1.06246 23.4308 1.44326 23.883C1.46992 23.9147 1.49765 23.9449 1.5263 23.9735C1.90741 24.3546 2.46239 24.4748 2.97591 24.2771L26.3659 15.2724C26.897 15.0679 27.2395 14.5692 27.2395 14ZM26.4642 12.4725C27.1008 12.7176 27.5129 13.3178 27.5129 14C27.5129 14.6823 27.1008 15.2825 26.4642 15.5276L3.07415 24.5323C2.46002 24.7687 1.79068 24.6246 1.33295 24.1669C1.29876 24.1327 1.26576 24.0967 1.2341 24.0591C0.778179 23.5177 0.717972 22.7729 1.08098 22.1653L5.85838 14.1698C5.92101 14.065 5.92102 13.935 5.85836 13.8302L1.08099 5.83481C0.717939 5.22716 0.77814 4.48235 1.23411 3.94095C1.68999 3.39955 2.41364 3.21343 3.07419 3.46774L26.4642 12.4725ZM26.0933 13.4358C26.4541 13.5747 26.4806 13.9092 26.4806 14C26.4806 14.0908 26.4542 14.4253 26.0933 14.5642L2.70335 23.5689C2.32918 23.713 2.08432 23.4664 2.02373 23.3942C1.96346 23.3227 1.76125 23.0394 1.96715 22.6947L6.74443 14.6993C7.00221 14.2679 7.00221 13.7322 6.74444 13.3007L1.96708 5.30535C1.76119 4.96071 1.96339 4.67738 2.02365 4.60585C2.08385 4.53441 2.3286 4.2869 2.70323 4.4311L26.0933 13.4358ZM26.2072 14C26.2072 13.9402 26.1903 13.7661 25.9951 13.691L2.60501 4.68629C2.4022 4.60822 2.27337 4.73385 2.23276 4.78204C2.19222 4.83015 2.09034 4.97851 2.20181 5.1651L6.97916 13.1605C7.28855 13.6783 7.28855 14.3218 6.97916 14.8396L2.20188 22.835C2.09041 23.0216 2.19229 23.1699 2.23283 23.218C2.27305 23.266 2.40227 23.3919 2.6051 23.3138L25.995 14.309C26.1903 14.2338 26.2072 14.0598 26.2072 14Z" fill="white"/>
<path d="M7.4529 8.46196C7.31301 8.32207 7.26045 8.10776 7.33607 7.91126C7.43852 7.64524 7.7372 7.51261 8.00319 7.61502L19.756 12.1397C20.022 12.2424 20.1546 12.5408 20.0522 12.8068C19.9498 13.0728 19.6511 13.2055 19.3851 13.103L7.63231 8.57838C7.56286 8.55155 7.50239 8.51145 7.4529 8.46196Z" fill="white"/>
<path fill-rule="evenodd" clip-rule="evenodd" d="M19.9246 12.7577C19.9998 12.5622 19.9025 12.3428 19.7067 12.2672L7.95407 7.74261C7.75857 7.66734 7.53899 7.76481 7.46367 7.96037M19.9246 12.7577C19.8493 12.9533 19.6297 13.0507 19.4342 12.9754L7.68157 8.45084C7.63015 8.43096 7.58571 8.40142 7.54957 8.36528C7.44652 8.26223 7.40816 8.10463 7.46367 7.96037M19.8052 12.0121C20.1415 12.142 20.3093 12.5193 20.1798 12.8559C20.0502 13.1923 19.6725 13.3602 19.336 13.2306L7.58305 8.70592C7.49562 8.67214 7.41904 8.62145 7.35622 8.55863C7.17949 8.3819 7.11276 8.11088 7.20848 7.86216C7.33805 7.52569 7.71585 7.35789 8.05231 7.48743L19.8052 12.0121Z" fill="white"/>
</g>
<defs>
<clipPath id="clip0">
<rect width="28" height="28" fill="white"/>
</clipPath>
</defs>
</svg>
