<svg width="168" height="209" viewBox="0 0 168 209" fill="none" xmlns="http://www.w3.org/2000/svg">
<path d="M58.4898 0.0798874C48.9226 1.03873 40.1545 5.15114 33.4106 11.8311C27.4231 17.7547 23.4173 25.2763 21.8511 33.5224C21.3397 36.2392 21.2545 37.3365 21.2545 41.1932C21.2545 44.432 21.2865 45.0712 21.4996 46.5734C22.533 53.9033 25.0153 60.6685 29.3195 67.9025C35.2537 77.8958 44.7676 88.326 56.5721 97.776C67.0129 106.129 79.4247 113.64 85.2843 115.131C88.1716 115.866 92.806 115.845 95.7891 115.089C101.18 113.725 112.846 106.725 122.882 98.8414C135.283 89.1144 145.085 78.5031 151.445 67.9345C152.723 65.8037 154.971 61.393 155.802 59.3581C157.582 55.022 158.743 50.7178 159.35 46.2219C159.616 44.2296 159.616 38.0929 159.35 36.0794C158.072 26.5974 153.991 18.3513 147.343 11.7885C140.844 5.38552 132.779 1.46489 123.479 0.207733C121.433 -0.0692673 115.307 -0.0692673 113.357 0.207733C108.361 0.921547 104.397 2.15739 100.093 4.33079C97.3659 5.70514 94.5319 7.50565 92.4331 9.19961L92.1348 9.434L93.083 10.4781C96.9503 14.7503 100.2 19.7256 102.331 24.6051C103.172 26.5441 103.811 28.3873 104.483 30.8057C104.515 30.9229 103.897 29.7509 103.108 28.1955C99.8482 21.7499 96.6627 17.2646 92.1561 12.7367C89.3541 9.91342 87.0849 8.09161 83.9633 6.13129C82.3545 5.11917 78.7748 3.32932 77.2939 2.78597C76.708 2.5729 76.09 2.33851 75.9089 2.25328C74.4387 1.60339 70.5181 0.655197 67.4924 0.218391C66.0861 0.0159607 60.0453 -0.0799179 58.4898 0.0798874Z" fill="white"/>
<path d="M28.3394 123.729C22.0216 124.198 16.3218 126.169 12.1135 129.344C10.9842 130.185 9.10913 131.997 8.71493 132.593C8.4699 132.987 8.41663 133.19 8.41663 133.744C8.41663 134.213 8.48055 134.553 8.6297 134.83C8.95997 135.491 12.2094 138.485 15.3416 141.02C27.86 151.142 44.4481 159.761 61.6221 165.098C71.3065 168.103 80.5221 170.063 91.5169 171.459C94.6385 171.863 94.6811 171.863 98.4419 171.853C102.331 171.853 103.971 171.746 107.711 171.267C123.095 169.296 137.552 163.585 149.474 154.785C151.956 152.953 155.866 149.671 155.866 149.426C155.866 149.309 154.353 147.008 153.799 146.294C152.233 144.248 150.603 143.034 148.781 142.565C147.876 142.331 146.011 142.352 144.946 142.608C143.401 142.981 142.549 143.396 138.884 145.527C134.74 147.935 129.221 150.449 126.419 151.195C125.897 151.344 125.46 151.472 125.439 151.493C125.407 151.514 125.513 151.802 125.663 152.143C125.982 152.867 126.568 154.806 126.568 155.137C126.568 156.362 119.078 158.716 111.866 159.761C108.382 160.272 105.75 160.506 102.277 160.613C89.1091 161.028 77.5603 158.429 68.1103 152.931C67.503 152.58 67.013 152.282 67.013 152.26C67.013 152.239 67.5989 152.505 68.3234 152.836C74.3855 155.712 82.6742 158.024 89.8655 158.855C93.2535 159.249 94.191 159.292 98.6017 159.292C103.375 159.281 104.813 159.196 108.67 158.642C113.347 157.981 119.1 156.554 123.106 155.052C123.969 154.732 124.064 154.668 124.033 154.444C123.937 153.592 121.721 149.096 120.559 147.413C119.931 146.496 119.931 146.496 117.725 146.166C116.117 145.932 111.504 145.932 108.936 146.166C104.824 146.55 104.003 146.603 100.999 146.603C96.7693 146.603 93.9779 146.283 90.6646 145.442C86.5522 144.398 83.0684 142.81 77.9865 139.657C76.8998 138.985 75.1099 137.867 73.9913 137.185C72.8833 136.492 71.1573 135.384 70.1559 134.713C66.981 132.593 64.0725 130.963 61.1001 129.674C53.93 126.531 44.9275 124.379 36.3831 123.761C35.03 123.665 29.5007 123.644 28.3394 123.729Z" fill="white"/>
<path d="M146.224 136.492C144.637 136.833 143.284 137.536 140.898 139.262C135.848 142.895 130.148 145.974 125.62 147.519C124.927 147.753 124.16 147.945 123.915 147.945H123.457L123.692 148.339C123.83 148.563 124.224 149.266 124.576 149.916C124.927 150.555 125.226 151.109 125.247 151.131C125.311 151.205 127.815 150.364 129.125 149.841C131.788 148.765 134.25 147.444 138.394 144.855C142.922 142.032 144.019 141.446 145.777 140.946C146.661 140.69 146.842 140.679 148.132 140.732C149.655 140.796 150.806 141.041 151.69 141.489C152.244 141.766 153.331 142.789 154.822 144.408L155.738 145.409L156.25 144.855C156.9 144.163 157.028 143.897 157.038 143.119C157.038 142.149 156.346 140.977 154.822 139.401C153.384 137.909 151.871 136.982 150.134 136.535C149.186 136.29 147.226 136.268 146.224 136.492Z" fill="white"/>
<path d="M40.802 185.249C40.589 185.345 40.3439 185.59 40.2374 185.803C40.0669 186.155 40.0563 186.666 40.0882 193.794C40.1202 202.402 40.0776 201.933 40.9938 203.808C41.4093 204.661 41.6331 204.97 42.4534 205.79C44.0834 207.431 45.7028 208.081 48.1532 208.091C49.7833 208.102 50.593 207.921 51.9886 207.239C52.8409 206.824 53.1499 206.6 53.9702 205.79C54.7906 204.97 55.0143 204.661 55.4298 203.808C56.1543 202.338 56.3034 201.699 56.2928 199.92C56.2928 198.705 56.2502 198.268 56.0584 197.597C54.9504 193.687 51.4985 191.343 47.6312 191.876C46.0224 192.1 44.7014 192.718 43.5614 193.794L42.9328 194.39V190.225C42.9328 186.24 42.9222 186.059 42.7197 185.718C42.3469 185.1 41.5052 184.898 40.802 185.249ZM49.421 194.486C50.4332 194.731 51.2642 195.221 52.0206 196.021C53.7465 197.864 54.0555 200.463 52.8409 202.85C52.468 203.585 51.3068 204.682 50.4864 205.066C47.3009 206.579 43.7319 204.714 42.9754 201.145C42.1231 197.107 45.543 193.581 49.421 194.486Z" fill="white"/>
<path d="M95.3497 185.249C95.1473 185.345 94.9129 185.548 94.8384 185.697C94.5081 186.347 94.604 186.603 99.0573 196.841C101.401 202.242 103.436 206.877 103.564 207.154C103.83 207.74 104.224 207.985 104.885 207.985C105.418 207.985 105.727 207.846 105.95 207.505C106.036 207.367 108.092 202.658 110.532 197.043C115.4 185.782 115.273 186.166 114.665 185.484C114.164 184.919 112.95 184.941 112.577 185.516C112.492 185.654 110.734 189.756 108.667 194.646C106.6 199.536 104.896 203.585 104.864 203.638C104.832 203.681 103.116 199.664 101.05 194.71C98.9827 189.756 97.2248 185.622 97.1502 185.516C96.9585 185.292 96.3938 185.058 96.0209 185.058C95.8611 185.058 95.5522 185.143 95.3497 185.249Z" fill="white"/>
<path d="M143.612 185.25C142.877 185.612 142.866 185.687 142.866 190.257V194.348L142.152 193.688C141.353 192.963 140.128 192.303 139.031 192.015C138.115 191.781 136.25 191.781 135.259 192.026C132.82 192.612 130.753 194.604 129.911 197.171C129.623 198.056 129.602 198.215 129.602 199.92C129.602 201.38 129.645 201.859 129.794 202.36C130.646 205.119 132.734 207.143 135.472 207.868C136.634 208.177 138.637 208.177 139.787 207.868C142.483 207.165 144.475 205.268 145.391 202.53L145.689 201.625L145.721 193.847C145.743 186.166 145.743 186.07 145.53 185.718C145.146 185.101 144.315 184.898 143.612 185.25ZM139.372 194.636C141.534 195.382 142.973 197.48 142.973 199.888C142.973 200.985 142.813 201.678 142.365 202.616C141.002 205.407 137.475 206.44 134.865 204.821C131.935 203.01 131.349 198.674 133.682 196.117C134.524 195.211 135.408 194.7 136.634 194.433C137.273 194.284 138.679 194.391 139.372 194.636Z" fill="white"/>
<path d="M120.717 185.772C120.013 186.112 119.63 187.082 119.854 187.913C120.195 189.181 121.835 189.713 122.805 188.861C123.306 188.424 123.476 188.041 123.476 187.37C123.476 186.709 123.21 186.219 122.634 185.835C122.187 185.537 121.26 185.505 120.717 185.772Z" fill="white"/>
<path d="M5.32451 191.888C4.39763 192.027 3.14047 192.464 2.5332 192.847C1.87266 193.273 1.20146 194.008 0.924462 194.626C0.594191 195.351 0.594191 197.045 0.924462 197.769C1.55304 199.133 3.15112 200.156 5.43105 200.678C8.24368 201.317 9.2558 201.679 9.82045 202.286C10.8539 203.373 10.236 204.865 8.52068 205.387C7.70033 205.632 5.80394 205.621 4.95163 205.365C4.07801 205.099 3.3642 204.726 2.84216 204.247C2.2562 203.714 2.01116 203.597 1.47846 203.597C0.381114 203.597 -0.332696 204.684 0.157382 205.621C0.476999 206.239 1.9792 207.166 3.40682 207.624C4.51482 207.986 5.39909 208.104 6.81606 208.104C9.19187 208.093 10.5982 207.613 11.834 206.378C12.7929 205.419 13.0379 204.79 13.0486 203.331C13.0486 202.382 13.0166 202.201 12.7609 201.669C11.9938 200.124 10.2466 199.165 7.02913 198.536C4.37632 198.014 3.26832 197.247 3.43878 196.043C3.51335 195.425 3.79036 195.106 4.53613 194.744C5.09013 194.467 5.37778 194.403 6.16617 194.349C7.80687 194.264 8.91487 194.594 9.96961 195.511C10.5769 196.033 10.8326 196.139 11.5038 196.139C12.4733 196.139 13.0166 195.34 12.6224 194.499C12.1856 193.593 10.5236 192.485 9.02141 192.091C8.05191 191.846 6.26206 191.75 5.32451 191.888Z" fill="white"/>
<path d="M24.6081 191.876C21.1989 192.356 18.6313 194.689 17.9494 197.96C17.747 198.918 17.747 201.017 17.9494 201.976C18.6526 205.364 21.3161 207.697 24.8744 208.07C27.474 208.336 29.8178 207.612 31.5118 206.003C33.2804 204.32 34.1114 202.072 33.9516 199.398C33.8663 198.013 33.6746 197.278 33.0566 196.031C32.1297 194.135 30.2547 192.622 28.1878 192.089C27.229 191.844 25.567 191.748 24.6081 191.876ZM26.9093 194.444C28.8803 194.806 30.521 196.383 31.0537 198.439C31.2561 199.238 31.2561 200.708 31.0537 201.518C30.3186 204.384 27.6018 206.078 24.7359 205.471C22.3282 204.959 20.6981 203.031 20.5064 200.442C20.208 196.638 23.2551 193.773 26.9093 194.444Z" fill="white"/>
<path d="M68.502 191.93C67.5858 192.185 66.4777 192.771 65.8172 193.368L65.1993 193.922V193.261C65.1993 192.686 65.1673 192.569 64.901 192.302C64.3257 191.738 63.175 191.812 62.7063 192.441C62.4825 192.739 62.4825 192.803 62.4825 200.037V207.324L62.7595 207.601C63.2603 208.091 64.4429 208.123 64.9116 207.655C65.146 207.431 65.146 207.388 65.1993 202.338L65.2526 197.256L65.5402 196.649C66.3819 194.859 68.6085 194.018 71.4531 194.423C72.3374 194.55 72.8168 194.423 73.0832 193.975C73.4241 193.421 73.3602 192.974 72.8914 192.526C72.6677 192.313 72.2948 192.079 72.0604 191.993C71.4212 191.78 69.2051 191.738 68.502 191.93Z" fill="white"/>
<path d="M82.725 191.887C81.7448 192.036 80.9884 192.281 80.1254 192.739C78.3249 193.709 77.1743 195.136 76.4925 197.257C76.1302 198.396 76.0663 200.847 76.3753 202.147C76.631 203.223 77.2382 204.459 77.9201 205.29C79.9869 207.804 83.6519 208.763 87.0718 207.676C88.5953 207.197 89.8844 206.43 90.1294 205.844C90.2999 205.417 90.1188 204.863 89.6926 204.501C89.1812 204.086 88.5633 204.128 87.6897 204.65C86.1662 205.567 84.8877 205.844 83.3962 205.588C81.1695 205.204 79.5501 203.755 78.9002 201.582C78.8044 201.262 78.7298 200.985 78.7298 200.964C78.7298 200.943 81.4146 200.932 84.6853 200.932H90.6408L90.9817 200.612L91.3333 200.282L91.2694 199.036C91.2055 197.523 91.0244 196.809 90.3958 195.541C89.064 192.825 86.081 191.397 82.725 191.887ZM85.0262 194.369C85.9105 194.561 86.4965 194.859 87.0931 195.403C87.8708 196.127 88.4461 197.193 88.6699 198.343L88.7444 198.695H83.7797H78.815L78.8789 198.29C79.0068 197.619 79.646 196.383 80.1894 195.808C81.3826 194.54 83.2151 193.986 85.0262 194.369Z" fill="white"/>
<path d="M158.751 191.887C155.768 192.27 153.296 194.327 152.273 197.256C151.996 198.056 151.986 198.226 151.975 199.92C151.975 201.997 152.092 202.573 152.774 203.968C154.212 206.877 157.153 208.443 160.466 208.07C162.064 207.889 163.375 207.282 164.611 206.174L165.239 205.598V206.28C165.239 207.101 165.474 207.601 165.996 207.878C166.432 208.113 166.827 208.123 167.317 207.921C168.041 207.612 168.02 207.761 167.988 202.573L167.956 197.896L167.647 197.097C167.221 195.957 166.688 195.136 165.836 194.241C164.003 192.345 161.542 191.525 158.751 191.887ZM161.745 194.636C163.939 195.392 165.346 197.48 165.346 199.973C165.346 202.189 164.227 204.086 162.384 205.013C158.016 207.197 153.413 202.956 154.905 198.119C155.491 196.223 157.132 194.785 159.166 194.391C159.699 194.295 161.148 194.423 161.745 194.636Z" fill="white"/>
<path d="M121.164 191.993C120.663 192.143 120.312 192.633 120.227 193.283C120.195 193.591 120.173 196.82 120.195 200.453C120.227 206.557 120.237 207.09 120.418 207.356C120.717 207.804 121.068 207.985 121.686 207.985C122.283 207.974 122.688 207.761 122.911 207.314C123.018 207.122 123.05 205.364 123.05 199.899V192.75L122.773 192.42C122.624 192.238 122.325 192.047 122.112 191.983C121.665 191.866 121.622 191.866 121.164 191.993Z" fill="white"/>
</svg>
