<svg width="175" height="24" viewBox="0 0 175 24" fill="none" xmlns="http://www.w3.org/2000/svg">
<path d="M42.6297 0.199553C42.408 0.299316 42.1531 0.554272 42.0422 0.77597C41.8649 1.14177 41.8538 1.67385 41.887 9.08968C41.9203 18.0463 41.8759 17.5586 42.8293 19.5095C43.2616 20.3963 43.4944 20.7178 44.3479 21.5713C46.0439 23.2784 47.7288 23.9546 50.2783 23.9657C51.9743 23.9768 52.8168 23.7883 54.2689 23.0789C55.1557 22.6466 55.4772 22.4138 56.3307 21.5713C57.1843 20.7178 57.417 20.3963 57.8494 19.5095C58.6031 17.9798 58.7583 17.3147 58.7472 15.4635C58.7472 14.1998 58.7029 13.7454 58.5034 13.047C57.3505 8.97883 53.759 6.54014 49.7352 7.09439C48.0613 7.32717 46.6868 7.9701 45.5007 9.08968L44.8467 9.71043V5.37622C44.8467 1.23045 44.8356 1.04201 44.625 0.68729C44.237 0.044363 43.3613 -0.16625 42.6297 0.199553ZM51.5974 9.8102C52.6505 10.0652 53.5151 10.5751 54.3022 11.4064C56.0979 13.3241 56.4194 16.0289 55.1557 18.5119C54.7677 19.2767 53.5595 20.4185 52.7059 20.8175C49.3915 22.3916 45.6781 20.4517 44.8911 16.7383C44.0043 12.5371 47.5625 8.86798 51.5974 9.8102Z" fill="white"/>
<path d="M99.3846 0.19953C99.174 0.299294 98.9301 0.509907 98.8526 0.665096C98.5089 1.34128 98.6087 1.60732 103.242 12.2599C105.681 17.88 107.798 22.702 107.931 22.9902C108.208 23.5998 108.618 23.8548 109.306 23.8548C109.86 23.8548 110.181 23.7107 110.414 23.356C110.503 23.2119 112.642 18.3123 115.181 12.4706C120.246 0.753777 120.113 1.15283 119.482 0.443398C118.961 -0.144104 117.697 -0.121935 117.309 0.476652C117.22 0.620756 115.391 4.88846 113.241 9.97645C111.09 15.0644 109.317 19.2767 109.283 19.3321C109.25 19.3765 107.466 15.1975 105.315 10.043C103.165 4.88846 101.336 0.587502 101.258 0.476652C101.058 0.243868 100.471 0 100.083 0C99.9167 0 99.5952 0.0886803 99.3846 0.19953Z" fill="white"/>
<path d="M149.599 0.199507C148.835 0.576395 148.823 0.65399 148.823 5.40943V9.66605L148.081 8.97878C147.249 8.22501 145.975 7.53774 144.833 7.23845C143.88 6.99458 141.94 6.99458 140.909 7.24953C138.37 7.8592 136.22 9.93209 135.344 12.6036C135.045 13.5236 135.023 13.6899 135.023 15.4635C135.023 16.9821 135.067 17.4809 135.222 18.0019C136.109 20.8729 138.282 22.9791 141.131 23.7328C142.339 24.0543 144.423 24.0543 145.62 23.7328C148.424 23.0012 150.497 21.0281 151.451 18.1793L151.761 17.2371L151.794 9.14506C151.816 1.15281 151.816 1.05305 151.595 0.687244C151.196 0.0443172 150.331 -0.166296 149.599 0.199507ZM145.188 9.96534C147.438 10.7413 148.934 12.925 148.934 15.4302C148.934 16.572 148.768 17.2925 148.302 18.268C146.884 21.1722 143.214 22.2475 140.499 20.5625C137.45 18.6781 136.841 14.1665 139.268 11.5061C140.144 10.5639 141.064 10.0319 142.339 9.75473C143.004 9.59954 144.467 9.71039 145.188 9.96534Z" fill="white"/>
<path d="M125.778 0.742668C125.046 1.09739 124.647 2.10612 124.88 2.97074C125.235 4.28985 126.942 4.8441 127.951 3.9573C128.472 3.50282 128.649 3.10376 128.649 2.40541C128.649 1.71814 128.372 1.20824 127.773 0.809177C127.308 0.498799 126.343 0.465544 125.778 0.742668Z" fill="white"/>
<path d="M5.71683 7.10546C4.75244 7.24957 3.44441 7.70405 2.81257 8.10311C2.12531 8.5465 1.42695 9.31137 1.13875 9.95429C0.795113 10.7081 0.795113 12.4706 1.13875 13.2244C1.79276 14.6432 3.4555 15.7074 5.82768 16.2505C8.7541 16.9156 9.80717 17.2925 10.3947 17.9244C11.4699 19.055 10.827 20.6069 9.04231 21.1501C8.18877 21.405 6.21565 21.394 5.32886 21.1279C4.41989 20.8508 3.6772 20.4628 3.13404 19.964C2.52436 19.4097 2.26941 19.2878 1.71516 19.2878C0.573414 19.2878 -0.169277 20.4185 0.34063 21.394C0.673178 22.0369 2.23616 23.0013 3.72154 23.4779C4.87437 23.8548 5.79442 23.9767 7.26872 23.9767C9.74066 23.9657 11.2039 23.4668 12.4897 22.181C13.4874 21.1833 13.7423 20.5293 13.7534 19.0107C13.7534 18.0241 13.7202 17.8357 13.4541 17.2814C12.656 15.6741 10.8381 14.6765 7.49042 14.0225C4.73027 13.4793 3.57743 12.6812 3.75479 11.4286C3.83239 10.7857 4.1206 10.4531 4.89654 10.0762C5.47296 9.78802 5.77225 9.72151 6.59254 9.66608C8.29962 9.5774 9.45245 9.92104 10.5499 10.8743C11.1817 11.4175 11.4477 11.5284 12.1461 11.5284C13.1548 11.5284 13.7202 10.697 13.31 9.82127C12.8555 8.87905 11.1263 7.72622 9.5633 7.31608C8.55457 7.06112 6.6923 6.96136 5.71683 7.10546Z" fill="white"/>
<path d="M25.7806 7.09438C22.2334 7.5932 19.562 10.0208 18.8525 13.4239C18.6419 14.4215 18.6419 16.6053 18.8525 17.6029C19.5841 21.1279 22.3554 23.5555 26.0578 23.9435C28.7625 24.2206 31.2012 23.4668 32.9637 21.793C34.8038 20.0416 35.6684 17.7027 35.5021 14.9203C35.4134 13.4793 35.2139 12.7144 34.571 11.4175C33.6066 9.44438 31.6557 7.87032 29.5052 7.31607C28.5075 7.06112 26.7783 6.96136 25.7806 7.09438ZM28.175 9.76585C30.2257 10.1427 31.9328 11.7833 32.487 13.9227C32.6976 14.7541 32.6976 16.2838 32.487 17.1262C31.7222 20.1081 28.8955 21.8706 25.9136 21.2388C23.4085 20.7067 21.7125 18.7003 21.5129 16.0067C21.2025 12.0493 24.3728 9.0675 28.175 9.76585Z" fill="white"/>
<path d="M71.4505 7.14982C70.4972 7.41586 69.3444 8.02553 68.6571 8.64629L68.0142 9.2227V8.53544C68.0142 7.93685 67.9809 7.81491 67.7038 7.53779C67.1052 6.95029 65.908 7.02788 65.4203 7.6819C65.1875 7.99227 65.1875 8.05878 65.1875 15.5855V23.1676L65.4757 23.4558C65.9967 23.9657 67.2271 23.9989 67.7149 23.5112C67.9587 23.2784 67.9587 23.2341 68.0142 17.9798L68.0696 12.6923L68.3689 12.0604C69.2446 10.1982 71.5613 9.32247 74.521 9.7437C75.4411 9.87671 75.9399 9.7437 76.217 9.27813C76.5717 8.70171 76.5052 8.23614 76.0175 7.77057C75.7847 7.54888 75.3967 7.30501 75.1529 7.21633C74.4878 6.99463 72.1821 6.95029 71.4505 7.14982Z" fill="white"/>
<path d="M86.2489 7.10544C85.2291 7.26062 84.4421 7.51558 83.5442 7.99223C81.6708 9.00096 80.4737 10.4863 79.7642 12.6922C79.3874 13.8783 79.3208 16.4279 79.6423 17.7802C79.9083 18.8998 80.5402 20.1857 81.2496 21.0503C83.4001 23.6663 87.2133 24.664 90.7716 23.5333C92.3567 23.0345 93.698 22.2364 93.953 21.6267C94.1303 21.1833 93.9419 20.6069 93.4985 20.23C92.9664 19.7977 92.3235 19.842 91.4145 20.3852C89.8294 21.3385 88.4992 21.6267 86.9473 21.3607C84.6305 20.9616 82.9456 19.4541 82.2694 17.1927C82.1697 16.8602 82.0921 16.572 82.0921 16.5498C82.0921 16.5276 84.8855 16.5166 88.2886 16.5166H94.485L94.8398 16.184L95.2056 15.8404L95.1391 14.5434C95.0725 12.9694 94.8841 12.2267 94.2301 10.9076C92.8445 8.08091 89.7407 6.59553 86.2489 7.10544ZM88.6433 9.68823C89.5633 9.88776 90.173 10.1981 90.7938 10.7635C91.603 11.5172 92.2015 12.6257 92.4343 13.8229L92.5119 14.1887H87.3463H82.1808L82.2473 13.7675C82.3803 13.0691 83.0454 11.7833 83.6107 11.1847C84.8522 9.86559 86.7588 9.28917 88.6433 9.68823Z" fill="white"/>
<path d="M165.351 7.10545C162.247 7.50451 159.676 9.6439 158.611 12.6923C158.323 13.5236 158.312 13.701 158.301 15.4635C158.301 17.6251 158.423 18.2236 159.132 19.6758C160.629 22.702 163.688 24.3315 167.136 23.9435C168.798 23.755 170.162 23.1232 171.448 21.9704L172.102 21.3718V22.0812C172.102 22.9347 172.346 23.4557 172.889 23.7439C173.343 23.9878 173.753 23.9989 174.263 23.7883C175.017 23.4668 174.995 23.622 174.962 18.2236L174.928 13.3574L174.607 12.526C174.164 11.3399 173.609 10.4864 172.723 9.55522C170.816 7.5821 168.255 6.72856 165.351 7.10545ZM168.466 9.96536C170.749 10.7524 172.213 12.925 172.213 15.5189C172.213 17.8246 171.049 19.7977 169.131 20.7621C164.586 23.0345 159.797 18.6227 161.349 13.5901C161.959 11.617 163.666 10.1206 165.783 9.71041C166.338 9.61065 167.845 9.74366 168.466 9.96536Z" fill="white"/>
<path d="M126.243 7.2163C125.722 7.37149 125.357 7.88139 125.268 8.55758C125.235 8.87904 125.213 12.2378 125.235 16.0177C125.268 22.3694 125.279 22.9237 125.468 23.2008C125.778 23.6664 126.144 23.8548 126.787 23.8548C127.407 23.8437 127.829 23.622 128.061 23.1564C128.172 22.9569 128.206 21.1279 128.206 15.4413V8.00333L127.917 7.65969C127.762 7.47125 127.452 7.27172 127.23 7.20521C126.764 7.08328 126.72 7.08328 126.243 7.2163Z" fill="white"/>
</svg>
