<svg width="36" height="40" viewBox="0 0 36 40" fill="none" xmlns="http://www.w3.org/2000/svg">
<path d="M11.6547 0.0186558C9.4279 0.241831 7.38708 1.19901 5.81741 2.7538C4.4238 4.13253 3.49142 5.88322 3.1269 7.80253C3.00787 8.43486 2.98804 8.69027 2.98804 9.58793C2.98804 10.3418 2.99548 10.4906 3.04507 10.8402C3.2856 12.5463 3.86338 14.1209 4.86519 15.8046C6.2464 18.1306 8.4608 20.5583 11.2083 22.7578C13.6385 24.7019 16.5274 26.4501 17.8912 26.7973C18.5632 26.9684 19.6419 26.9634 20.3362 26.7873C21.591 26.4699 24.3063 24.8408 26.6422 23.0058C29.5286 20.7418 31.8099 18.2719 33.2903 15.8121C33.5879 15.3161 34.1111 14.2895 34.3045 13.8159C34.7187 12.8066 34.989 11.8048 35.1303 10.7584C35.1923 10.2947 35.1923 8.86633 35.1303 8.39767C34.8327 6.1907 33.883 4.27139 32.3356 2.74388C30.823 1.25356 28.9459 0.341021 26.781 0.0484123C26.3049 -0.0160599 24.8791 -0.0160599 24.4253 0.0484123C23.2623 0.214554 22.3398 0.502203 21.338 1.00807C20.7032 1.32795 20.0436 1.74703 19.5551 2.1413L19.4857 2.19586L19.7064 2.43887C20.6065 3.43324 21.3628 4.59128 21.8588 5.72699C22.0547 6.1783 22.2035 6.6073 22.3597 7.1702C22.3671 7.19748 22.2233 6.9247 22.0398 6.56266C21.281 5.06243 20.5396 4.01846 19.4906 2.96457C18.8385 2.30745 18.3103 1.88341 17.5837 1.42714C17.2093 1.19157 16.3761 0.774973 16.0314 0.648508C15.895 0.598913 15.7512 0.544359 15.7091 0.524521C15.3668 0.373257 14.4543 0.152561 13.7501 0.0508919C13.4227 0.00377655 12.0167 -0.0185394 11.6547 0.0186558Z" fill="white"/>
<path d="M4.6371 28.7984C3.16662 28.9075 1.83996 29.3663 0.860466 30.1052C0.597615 30.3011 0.161182 30.7227 0.0694324 30.8616C0.0123987 30.9533 0 31.0004 0 31.1294C0 31.2385 0.0148784 31.3178 0.0495946 31.3823C0.126466 31.536 0.882784 32.2328 1.61182 32.823C4.52551 35.1788 8.38645 37.1849 12.3838 38.4272C14.6378 39.1265 16.7828 39.5828 19.3419 39.9076C20.0685 40.0018 20.0784 40.0018 20.9537 39.9994C21.8588 39.9994 22.2407 39.9746 23.1111 39.863C26.6918 39.4042 30.0568 38.0751 32.8316 36.0268C33.4094 35.6003 34.3195 34.8366 34.3195 34.7795C34.3195 34.7522 33.9673 34.2166 33.8384 34.0505C33.4739 33.5744 33.0945 33.2917 32.6704 33.1826C32.4597 33.128 32.0257 33.133 31.7777 33.1925C31.4182 33.2793 31.2198 33.376 30.3668 33.8719C29.4022 34.4324 28.1177 35.0176 27.4655 35.1912C27.344 35.2259 27.2423 35.2556 27.2374 35.2606C27.2299 35.2656 27.2547 35.3325 27.2894 35.4119C27.3638 35.5805 27.5002 36.0318 27.5002 36.1087C27.5002 36.3938 25.757 36.9418 24.0782 37.1849C23.2673 37.3039 22.6548 37.3584 21.8464 37.3832C18.7815 37.48 16.0934 36.8749 13.8939 35.5954C13.7526 35.5135 13.6385 35.4441 13.6385 35.4391C13.6385 35.4342 13.7749 35.4962 13.9435 35.573C15.3545 36.2426 17.2837 36.7807 18.9575 36.9741C19.7461 37.0658 19.9643 37.0758 20.9909 37.0758C22.1018 37.0733 22.4366 37.0534 23.3343 36.9245C24.4229 36.7707 25.7619 36.4385 26.6943 36.0888C26.8952 36.0144 26.9175 35.9996 26.91 35.9475C26.8877 35.7491 26.3719 34.7027 26.1016 34.3109C25.9553 34.0976 25.9553 34.0976 25.442 34.0207C25.0676 33.9662 23.9939 33.9662 23.3963 34.0207C22.4391 34.11 22.2481 34.1224 21.5489 34.1224C20.5644 34.1224 19.9147 34.048 19.1435 33.8521C18.1863 33.6091 17.3755 33.2396 16.1926 32.5056C15.9397 32.3494 15.5231 32.089 15.2627 31.9303C15.0048 31.7691 14.6031 31.5112 14.37 31.355C13.6311 30.8616 12.9541 30.4822 12.2623 30.1821C10.5934 29.4506 8.49804 28.9497 6.50929 28.8059C6.19437 28.7835 4.90739 28.7786 4.6371 28.7984Z" fill="white"/>
<path d="M32.0753 31.7691C31.7058 31.8485 31.3909 32.0122 30.8354 32.4139C29.66 33.2595 28.3334 33.9761 27.2795 34.3357C27.1183 34.3902 26.9398 34.4348 26.8828 34.4348H26.7761L26.8307 34.5266C26.8629 34.5787 26.9547 34.7423 27.0365 34.8936C27.1183 35.0424 27.1878 35.1713 27.1927 35.1763C27.2076 35.1936 27.7903 34.9977 28.0953 34.8762C28.7153 34.6258 29.2881 34.3183 30.2527 33.7157C31.3066 33.0586 31.562 32.9222 31.9712 32.8057C32.177 32.7462 32.2191 32.7437 32.5192 32.7561C32.8738 32.771 33.1416 32.828 33.3474 32.9321C33.4764 32.9966 33.7293 33.2347 34.0764 33.6116L34.2897 33.8447L34.4087 33.7157C34.56 33.5545 34.5898 33.4926 34.5922 33.3115C34.5922 33.0859 34.431 32.8131 34.0764 32.4461C33.7417 32.0989 33.3896 31.8832 32.9854 31.7791C32.7647 31.722 32.3084 31.7171 32.0753 31.7691Z" fill="white"/>
</svg>
